HIERARCHY
ROOT Hips
{
	OFFSET 228.634003 92.561920 -263.051910
	CHANNELS 6 Xposition Yposition Zposition Zrotation Yrotation Xrotation 
	JOINT LeftUpLeg
	{
		OFFSET 0.103458 1.857820 10.548502
		CHANNELS 3 Zrotation Yrotation Xrotation
		JOINT LeftLeg
		{
			OFFSET 43.500000 -0.000023 -0.000011
			CHANNELS 3 Zrotation Yrotation Xrotation
			JOINT LeftFoot
			{
				OFFSET 42.372192 0.000038 0.000002
				CHANNELS 3 Zrotation Yrotation Xrotation
				JOINT LeftToe
				{
					OFFSET 17.299992 -0.000004 0.000006
					CHANNELS 3 Zrotation Yrotation Xrotation
					End Site
					{
						OFFSET 0.000000 0.000000 0.000000
					}
				}
			}
		}
	}
	JOINT RightUpLeg
	{
		OFFSET 0.103461 1.857814 -10.548508
		CHANNELS 3 Zrotation Yrotation Xrotation
		JOINT RightLeg
		{
			OFFSET 43.500042 -0.000015 0.000008
			CHANNELS 3 Zrotation Yrotation Xrotation
			JOINT RightFoot
			{
				OFFSET 42.372253 0.000008 0.000006
				CHANNELS 3 Zrotation Yrotation Xrotation
				JOINT RightToe
				{
					OFFSET 17.299973 -0.000014 0.000011
					CHANNELS 3 Zrotation Yrotation Xrotation
					End Site
					{
						OFFSET 0.000000 0.000000 0.000000
					}
				}
			}
		}
	}
	JOINT Spine
	{
		OFFSET 6.901966 -2.603737 -0.000007
		CHANNELS 3 Zrotation Yrotation Xrotation
		JOINT Spine1
		{
			OFFSET 12.588102 0.000017 0.000001
			CHANNELS 3 Zrotation Yrotation Xrotation
			JOINT Spine2
			{
				OFFSET 12.343197 -0.000013 0.000000
				CHANNELS 3 Zrotation Yrotation Xrotation
				JOINT Neck
				{
					OFFSET 25.832905 -0.000008 0.000000
					CHANNELS 3 Zrotation Yrotation Xrotation
					JOINT Head
					{
						OFFSET 11.766610 0.000009 -0.000002
						CHANNELS 3 Zrotation Yrotation Xrotation
						End Site
						{
							OFFSET 0.000000 0.000000 0.000000
						}
					}
				}
				JOINT LeftShoulder
				{
					OFFSET 19.745903 -1.480377 6.000115
					CHANNELS 3 Zrotation Yrotation Xrotation
					JOINT LeftArm
					{
						OFFSET 11.284125 -0.000014 -0.000024
						CHANNELS 3 Zrotation Yrotation Xrotation
						JOINT LeftForeArm
						{
							OFFSET 33.000046 -0.000012 0.000029
							CHANNELS 3 Zrotation Yrotation Xrotation
							JOINT LeftHand
							{
								OFFSET 25.199989 0.000034 0.000012
								CHANNELS 3 Zrotation Yrotation Xrotation
								End Site
								{
									OFFSET 0.000000 0.000000 0.000000
								}
							}
						}
					}
				}
				JOINT RightShoulder
				{
					OFFSET 19.746098 -1.480362 -6.000071
					CHANNELS 3 Zrotation Yrotation Xrotation
					JOINT RightArm
					{
						OFFSET 11.284137 -0.000006 -0.000008
						CHANNELS 3 Zrotation Yrotation Xrotation
						JOINT RightForeArm
						{
							OFFSET 33.000095 0.000017 0.000000
							CHANNELS 3 Zrotation Yrotation Xrotation
							JOINT RightHand
							{
								OFFSET 25.199778 0.000144 0.000423
								CHANNELS 3 Zrotation Yrotation Xrotation
								End Site
								{
									OFFSET 0.000000 0.000000 0.000000
								}
							}
						}
					}
				}
			}
		}
	}
}
MOTION
Frames: 14
Frame Time: 0.033333
76.334534 6.439616 220.223907 -168.501586 65.214954 -159.464727 -179.236800 -9.247894 -175.519374 -5.727541 -2.693406 -18.226642 68.999138 8.441236 -14.267779 21.454553 0.003088 -0.000001 167.416707 29.635808 -152.887255 -55.901731 5.360773 27.318972 60.005520 -12.726506 18.770082 21.454555 -0.003108 -0.000008 6.743596 -2.007943 -1.080774 3.515121 -3.982664 -2.222556 3.196438 -3.995880 -2.198441 -23.679769 -15.393821 -1.239579 17.108809 12.049067 -7.546420 -118.368722 -82.610236 -63.873101 -3.813503 34.044538 20.752582 -29.932522 -13.934381 1.159926 13.944740 13.247918 37.788090 -109.234191 69.828166 74.029203 -4.046001 -37.135523 -22.269296 -21.158833 14.562807 -1.084897 8.580660 4.465655 1.299920 
76.400581 6.360092 220.253296 -168.323004 65.343873 -159.619199 -179.930337 -9.662196 -177.355547 -7.451447 -2.560713 -19.391389 68.598650 8.846161 -15.517498 21.454553 0.003094 -0.000005 167.929900 30.281217 -151.254170 -55.546937 5.789682 26.449488 60.006456 -13.092071 16.221481 21.454562 -0.003113 -0.000023 6.788362 -2.002051 -0.996678 3.601705 -3.972618 -2.055611 3.282988 -3.984797 -2.031554 -25.613853 -15.748108 -0.653524 18.175941 11.843177 -7.265345 -120.995790 -82.467376 -61.235911 -3.870445 33.366021 19.640562 -29.879649 -14.680474 1.206860 11.702831 13.292241 28.768719 -110.635582 69.543258 72.628243 -4.577066 -36.504745 -17.112349 -22.006784 14.761386 -1.108663 18.485065 11.249203 6.242382 
76.453056 6.271595 220.244995 -168.117183 65.588879 -160.225091 179.564212 -10.418717 177.595614 -9.085143 -2.651122 -17.622388 69.079536 7.593061 -15.612161 21.454551 0.003092 0.000000 168.522337 31.173977 -148.910104 -55.345948 6.319640 24.954596 60.826564 -13.099340 13.564744 21.454557 -0.003107 -0.000005 6.816642 -1.984486 -0.829841 3.652240 -3.942229 -1.722128 3.333472 -3.952429 -1.698259 -26.802931 -16.193270 -0.274103 18.904763 12.080211 -7.182753 -121.820126 -82.258079 -60.419020 -4.075038 32.999014 18.566220 -28.759133 -15.416644 1.232929 9.441007 13.377801 20.557881 -111.787719 69.251527 71.479699 -5.040376 -36.016240 -14.276974 -23.015762 15.542830 -1.172240 23.052870 16.458362 16.873931 
76.476303 6.218684 220.273407 -168.028022 65.728714 -160.965087 179.262003 -11.178498 175.877535 -10.264541 -3.508013 -16.690841 69.790183 6.758243 -16.409429 21.454551 0.003092 -0.000002 168.996734 32.283094 -146.050304 -55.741368 6.210952 23.113405 61.944577 -12.235262 12.484543 21.454558 -0.003105 -0.000015 6.834240 -2.007803 -0.669285 3.682310 -3.993594 -1.402171 3.363466 -4.001846 -1.377993 -27.359175 -16.605086 -0.022056 19.174983 12.368101 -7.175477 -121.935242 -82.073356 -60.315174 -4.252306 32.682042 17.436891 -27.161309 -16.439167 1.269528 8.635544 13.279219 14.929960 -112.973214 69.032182 70.290412 -5.258652 -35.732913 -12.710990 -23.190770 16.629725 -1.243552 24.771850 17.597508 27.175262 
76.373253 6.225238 220.347794 -167.738709 65.756902 -161.409487 178.717405 -11.309011 178.205141 -11.726287 -4.014922 -17.301518 70.440403 6.994964 -17.347647 21.454557 0.003093 -0.000007 169.383787 33.140505 -144.012175 -56.399543 6.045314 21.679019 63.114315 -11.139411 12.820763 21.454563 -0.003113 -0.000023 6.872480 -2.063720 -0.534329 3.754886 -4.109295 -1.135263 3.435960 -4.115931 -1.110383 -28.025260 -16.929539 0.362434 19.004882 12.813937 -7.086637 -122.889023 -81.958657 -59.360792 -4.284523 32.127916 16.143181 -25.283110 -17.491821 1.304924 8.889640 12.508009 11.974782 -114.342216 68.902183 68.906336 -5.303239 -35.539025 -11.278159 -23.609988 17.531764 -1.306729 25.572626 17.164644 33.931044 
76.208633 6.272961 220.469604 -167.196720 65.938025 -161.339723 177.869929 -11.190303 -178.785994 -13.596413 -3.980195 -17.328093 71.280510 6.892100 -18.076591 21.454555 0.003087 -0.000004 169.905614 33.501702 -142.453048 -56.891484 6.024204 20.642691 64.072017 -10.332422 13.147352 21.454562 -0.003112 -0.000020 6.918585 -2.071279 -0.434547 3.843700 -4.127213 -0.937463 3.524744 -4.132660 -0.912479 -28.599529 -17.406700 0.713352 18.872731 13.496240 -7.089149 -123.413746 -81.985336 -58.829738 -4.351192 31.818918 14.321633 -23.415912 -18.397413 1.333362 10.004059 10.087609 12.174589 -115.475017 68.735206 67.764383 -5.310565 -35.396957 -10.362882 -24.064831 18.127952 -1.351279 26.492646 16.344395 37.930141 
76.016663 6.353774 220.628403 -166.452885 66.217400 -160.547913 176.660288 -10.852597 -176.112890 -15.999993 -3.676025 -16.192041 72.235705 6.324978 -17.611160 21.454548 0.003097 0.000001 170.524880 33.335305 -141.999769 -57.114749 6.479416 20.332414 64.493385 -10.086450 13.328407 21.454558 -0.003110 -0.000012 6.972625 -2.029373 -0.444371 3.951754 -4.042606 -0.957616 3.632840 -4.048180 -0.933145 -28.864301 -17.889744 1.051949 18.898640 14.306452 -7.047507 -124.098185 -82.004610 -58.138201 -4.381822 31.450125 12.895362 -22.420921 -19.198287 1.369502 12.673951 6.540346 15.327102 -115.959414 68.713861 67.272207 -5.207847 -35.513183 -10.303128 -24.044569 18.412257 -1.368913 26.755140 15.655371 39.622720 
75.847908 6.512372 220.856201 -165.546874 66.460848 -159.428541 174.576971 -10.141795 -174.159497 -20.064463 -3.126427 -13.826852 72.650414 4.980700 -16.463085 21.454553 0.003093 0.000002 170.902630 32.834905 -142.505900 -57.387823 6.877110 20.586233 64.683346 -10.118346 13.832667 21.454560 -0.003108 -0.000022 7.028042 -1.973094 -0.474904 4.063089 -3.928542 -1.018666 3.744226 -3.934484 -0.994886 -28.990058 -18.122433 1.207049 19.110670 14.729556 -7.009482 -123.515993 -82.205602 -58.712559 -4.267923 31.381632 12.376798 -22.282912 -19.959773 1.415527 16.436212 1.717994 20.118404 -115.984617 68.701185 67.247386 -4.994794 -35.625351 -10.960419 -23.602207 18.483798 -1.366694 26.894141 15.135423 40.032842 
75.763161 6.744115 221.118805 -164.519777 66.726543 -158.010812 171.716201 -9.221202 -172.945608 -25.590309 -2.533008 -10.399828 72.549095 3.006314 -14.606235 21.454545 0.003088 -0.000001 171.112932 32.052408 -144.064385 -57.648798 7.494019 21.395878 64.631082 -10.367446 14.821890 21.454557 -0.003108 -0.000015 7.085821 -1.878677 -0.509649 4.178744 -3.737980 -1.086708 3.859967 -3.744331 -1.064083 -29.155622 -18.155676 1.052212 19.539091 14.638082 -7.132285 -123.976007 -82.442255 -58.233517 -4.168366 31.256455 12.356883 -22.395477 -20.249892 1.435390 18.995562 -1.833256 19.331365 -115.798180 68.504598 67.452196 -4.811511 -35.475429 -11.880679 -23.209941 18.397094 -1.355382 27.781245 13.969391 40.519302 
75.741112 7.006242 221.322601 -163.843507 66.831898 -156.773373 168.324971 -8.105692 -171.848420 -31.869772 -2.782336 -6.550593 70.793640 0.649984 -12.509529 21.454562 0.003089 -0.000011 171.294970 31.422804 -145.155809 -57.874467 7.632620 22.107132 64.455880 -10.514619 15.819319 21.454558 -0.003108 -0.000015 7.141068 -1.796883 -0.559405 4.289848 -3.572057 -1.184977 3.971146 -3.579023 -1.163357 -29.890735 -18.058680 0.676916 20.606648 14.305929 -7.402886 -124.561914 -82.542146 -57.636401 -4.365788 31.204515 12.413501 -22.761276 -20.031389 1.426860 19.681598 -5.038042 14.727423 -115.547799 68.000148 67.745723 -4.881632 -35.058231 -12.689419 -22.986868 18.279803 -1.344718 28.284110 12.856728 40.798407 
75.811157 7.291417 221.488098 -163.524168 66.811524 -155.750976 164.782931 -6.189601 -169.912758 -38.433509 -3.314685 -3.166228 67.478287 -1.833261 -11.483375 21.454558 0.003093 -0.000007 171.675166 31.180097 -145.721130 -58.078219 7.826616 22.584753 64.398172 -10.561288 16.643207 21.454551 -0.003107 -0.000019 7.160346 -1.735714 -0.639467 4.330016 -3.446573 -1.343432 4.011384 -3.454483 -1.322570 -30.394741 -18.144370 0.295103 21.509362 14.315631 -7.751279 -125.611086 -82.629880 -56.573067 -4.442720 31.218339 12.676920 -23.756742 -19.876564 1.431856 19.760123 -7.224016 15.375642 -115.151908 67.674751 68.174311 -4.652485 -34.624841 -13.667550 -22.975411 18.308901 -1.346385 28.460898 11.597182 40.374420 
75.922653 7.562172 221.550003 -162.870970 66.780604 -154.669798 161.631769 -3.804206 -167.239463 -44.995172 -4.131415 -0.677876 63.979748 -4.112694 -11.635843 21.454560 0.003090 -0.000000 172.185722 30.868497 -145.875137 -58.046096 7.687321 22.864637 64.331352 -10.560540 17.151402 21.454560 -0.003107 -0.000022 7.187557 -1.676662 -0.654370 4.384040 -3.327632 -1.371787 4.065455 -3.335722 -1.351646 -30.274615 -18.115383 -0.275289 21.834972 14.231183 -8.197920 -126.582325 -82.960618 -55.573482 -4.322085 31.504849 12.790399 -25.771048 -19.876537 1.464032 19.471580 -8.486595 20.561219 -115.995518 67.497534 67.326582 -3.974327 -33.638412 -14.773646 -23.221940 18.313358 -1.350279 28.338841 11.102862 39.970694 
76.022133 7.811447 221.532700 -161.745491 66.941414 -153.641800 158.738541 -1.357300 -165.339250 -52.131593 -4.479489 2.047058 60.918464 -6.386517 -11.350990 21.454553 0.003093 0.000000 172.563869 30.180000 -146.304797 -57.882554 7.429647 23.139241 64.585545 -10.406026 18.165556 21.454553 -0.003111 -0.000019 7.228107 -1.569611 -0.536571 4.460434 -3.117585 -1.133118 4.141889 -3.124254 -1.114254 -29.952299 -18.085417 -0.874373 21.724342 13.954209 -8.695234 -128.328968 -83.432660 -53.785008 -4.205606 32.041087 12.187252 -28.555231 -19.971263 1.519590 18.875936 -7.674121 27.828129 -116.935093 67.398381 66.374508 -3.084957 -32.716603 -15.706165 -23.625590 18.502433 -1.368220 28.074156 11.330658 39.335339 
75.997093 8.009337 221.470200 -159.982975 67.122209 -152.538396 156.517637 0.731199 -164.821672 -59.433110 -3.925779 5.306841 59.037403 -8.840719 -10.796952 21.454550 0.003090 0.000005 172.981139 29.401796 -146.477081 -57.776570 7.005424 23.112599 65.628071 -10.189706 19.043961 21.454557 -0.003108 -0.000022 7.325769 -1.457639 -0.305520 4.648649 -2.901961 -0.669084 4.330129 -2.905830 -0.651530 -29.591962 -18.171592 -1.364889 21.394278 13.889944 -9.168451 -135.066936 -83.387874 -46.994703 -4.356419 31.509158 10.935891 -32.369479 -19.786380 1.584923 17.497082 -6.210338 33.839517 -118.185618 67.309677 65.103205 -2.220308 -31.945256 -16.215301 -24.060943 18.934230 -1.402105 27.787214 11.590890 38.816003 
